<?xml version="1.0" encoding="UTF-8"?>
<svg version="1.1" viewBox="0 0 2048 2048" width="600" height="600" xmlns="http://www.w3.org/2000/svg">
<path transform="translate(0)" d="m0 0h2048v2048h-2048z" fill="#FEFEEA"/>
<path transform="translate(987,514)" d="m0 0h22l22 2 24 4 20 5 25 9 25 12 17 10 11 8 12 9 10 9 8 7 12 12 9 11 8 10 12 18 12 21 11 25 7 21 5 21 4 26v51l-4 26-6 24-8 23-10 22-13 22-12 17-8 10-11 12-17 17-8 7-18 13-14 9-18 10-20 9-27 9-24 5-21 3-9 1h-32l-32-4-23-5-27-9-24-11-22-13-14-10-13-10-13-12-6-5-7-8-8-9-15-20-8-13-10-18-11-25-7-22-6-27-3-18v-50l5-29 6-25 8-22 14-29 11-18 14-19 10-11 9-11 11-10 11-9 19-14 15-9 19-10 16-7 27-9 24-5 21-3z" fill="#3B3D58"/>
<path transform="translate(817,648)" d="m0 0h17l15 2 20 6 15 6v7l-4 22-3 20-3 31v77l4 38 5 28 7 29 11 33 10 23 11 20 8 12-1 2-16-9-14-10-9-7-14-11-24-24-9-11-11-13-13-18-10-15-12-20-12-23-10-24-9-28-5-22-3-25v-24l4-21 6-16 5-9 9-10 7-6 14-7z" fill="#FEFEEA"/>
<path transform="translate(1160,652)" d="m0 0h22l15 4 11 6 10 9 6 7 8 16 4 13 2 10 1 12v17l-2 19-5 26-9 30-11 26-11 21-17 28-8 12-14 18-14 17-14 15-13 13-11 9-17 13-17 11-10 6-5 1 6-8 12-19 10-19 11-27 8-26 7-29 4-23 3-23 2-28 1-33-1-26-3-38-6-36-1-10 13-6 20-6z" fill="#FEFEEA"/>
<path transform="translate(988,529)" d="m0 0h22l11 4 12 7 12 11 10 11 10 15 6 10 11 24 8 21 7 24-1 4-18 11-18 13-13 11-10 9-8 7-11 11-11 14-5 6-4-1-12-14-9-10-4-4v-2l-4-2-16-16-14-11-9-7-13-9-15-9-1-5 10-30 13-30 10-18 9-12 9-11 7-7 10-7 12-6z" fill="#FEFEEA"/>
<path transform="translate(999,768)" d="m0 0 4 2 15 24 11 19 10 19 9 21 9 30 4 17 3 19 1 12-1 25-4 20-5 12-6 10-7 9-12 9-12 5-13 3h-21l-12-3-8-4-10-9-8-9-7-14-4-13-2-15v-32l4-25 6-24 11-31 13-27 10-18 20-30z" fill="#FEFEEA"/>
<path transform="translate(670,1143)" d="m0 0h11l10 4 8 7 4 8 1 4v25l-5 21-20 71-7 26-1 6v8l4 10 6 4h14l13-5 8-6 26-22 10-8 25-148 1-4h35l7 3 1 2-25 118-12 56-1 10 3 7h8l7-6 9-17h4l-8 16-7 10-9 6-8 3h-8l-10-4-7-8-4-9-1-5-1-18-4 2-14 12-11 9-13 10-14 7-9 3-16 1-10-2-8-4-8-9-4-9-2-9v-19l4-22 20-94 2-11v-9l-3-3-7 1-5 5-3 4-3-1 6-12 8-9 9-5z" fill="#3B3D58"/>
<path transform="translate(898,671)" d="m0 0 10 5 17 12 10 8 11 9 28 28 11 14 5 6-1 6-8 11-11 17-10 17-12 23-11 26-8 25-5 20-4 28-2 24-2-1-8-21-7-22-7-31-4-27-3-29v-80l4-36 4-24z" fill="#FEFEEA"/>
<path transform="translate(1099,674)" d="m0 0 3 1 6 39 3 43 1 24-2 36-2 28-5 32-7 30-8 25-7 19-2 1-2-33-5-30-7-27-11-28-14-29-10-18-20-30-1-3 9-11 13-15 18-18 11-9 14-11 15-10z" fill="#FEFEEA"/>
<path transform="translate(860,1225)" d="m0 0h11l13 4 6 7 3 10 1 14 14-12 14-11 14-8 13-4h15l11 4 8 9 2 6v23l-6 23-20 62-2 8v11l3 7 5 5 6 3 10 2h15l12-4 7-6 4-10 1-7 4-1 12 3 5 4 2 4v8l-4 8-7 6-10 4-9 2h-34l-13-4-10-5-9-8-7-10-5-11-3-12-1-16 1-17 4-22 7-30 1-6v-14l-2-4-5-1-9 3-9 6-13 11-11 9-4 4-16 64-4 12h-30l-4-4 3-21 12-76v-9l-1-2-6 1-8 14-5 9h-3l1-5 7-13 7-9 7-5z" fill="#3B3D58"/>
<path transform="translate(1326,1224)" d="m0 0h11l8 5 5 7 2 6v16l-5 22-7 19-12 25-13 21-12 16-9 10-12 12-13 9-13 6-12 2-18-1-13-4-10-6-8-9-3-7v-16l4-6 8-5 3-1h9l1 18 3 13 5 8 7 4 5 1h12l10-3 11-6 12-10v-2l-11-7-11-9-9-10-10-16-6-15-4-16-1-7-1-29-2-12-1-3-6-1-7 10-3 6h-3l1-5 10-18 7-7 5-3 4-1h11l12 4 8 7 4 8 2 8v43l2 13 4 14 7 13 5 6 8 6 5-1 10-15 11-19 6-15 3-10 1-13-4-11-6-8-9-8-5-3 2-6 6-8 6-5z" fill="#3B3D58"/>
<path transform="translate(1046,533)" d="m0 0 9 1 27 8 15 6 25 12 15 9 21 16 14 13 8 7 9 11 9 10 11 16 3 4v2l-4-1-15-6-11-2h-24l-21 4-20 7-4 2-4-1-6-21-10-27-10-21-12-20-9-12-9-10-7-6z" fill="#FEFEEA"/>
<path transform="translate(946,533)" d="m0 0h5l-5 5-10 11-10 13-14 25-8 17-10 27-6 18-9-3-16-6-17-4-9-1-26 1-12 3-7 3h-3l2-5 11-14 11-13 11-12 14-12 11-9 16-11 18-10 21-10 27-9z" fill="#FEFEEA"/>
<path transform="translate(1167,1180)" d="m0 0h7l3 1-1 10-8 37 35 1 1 3-1 3-37 1-16 74-2 10 1 10 5 5 9 1 11-4 5-5 10-19 3 1-4 10-9 17-7 8-9 5-5 2-6 1h-11l-11-4-9-8-4-8-1-4v-20l10-69v-3l-23-1v-5l1-1h24l3-21 3-10 6-8 7-6 5-3z" fill="#3B3D58"/>
<path transform="translate(1045,1228)" d="m0 0h29v8l-9 41-8 31-4 16 1 6 2 4 4 2 9-1 7-4 6-10 6-12 3-1-1 5-8 17-7 10-8 7-9 4-5 1h-12l-9-3-6-4-6-7-3-9v-19l9-55 1-13-2-4-5 2-8 13-4 8-4 2v-3l9-17 7-8 6-4 6-2z" fill="#3B3D58"/>
<path transform="translate(748,777)" d="m0 0 2 3 8 30 8 22 11 24 10 19 12 20 7 10 13 18 10 13 9 10 8 10 18 18 11 9 13 11 12 8 16 10 12 7-3 1-28-11-17-8-21-13-14-10-10-8-16-15-13-14-13-17-10-15-8-14-9-20-10-30-5-22-3-18z" fill="#FEFEEA"/>
<path transform="translate(1247,784)" d="m0 0h2v20l-4 25-4 17-9 27-11 24-13 21-8 11-7 9-9 10-24 24-19 14-14 9-13 8-25 11-2-1 15-10 14-11 13-11 13-12 12-12 9-11 11-13 8-11 13-19 9-14 8-14 9-17 9-20 10-27z" fill="#FEFEEA"/>
<path transform="translate(937,1455)" d="m0 0 9 1 8 4 5 6 3 8v12l-5 10-7 6-7 2h-7l-10-4-7-9-2-7v-9l3-8 7-8z" fill="#FEFEEA"/>
<path transform="translate(862,1455)" d="m0 0 10 1 8 4 6 9 1 3v16l-3 6-5 5-4 3-6 2h-8l-9-4-6-7-3-7v-13l3-7 6-7z" fill="#FEFEEA"/>
<path transform="translate(1017,1455)" d="m0 0 10 1 8 5 5 6 2 6v14l-4 8-8 7-6 2h-8l-8-3-7-7-3-7v-16l5-8 6-5z" fill="#FEFEEA"/>
<path transform="translate(1086,1451)" d="m0 0h14l7 3 7 5 5 10 2 11-1 1-48 1 2 8 4 7 9 5 4 1h8l9-3 6-4h2l1 3-5 5-9 4h-16l-10-4-7-7-4-8-1-4v-10l3-10 6-8 6-4z" fill="#3B3D58"/>
<path transform="translate(750,1430)" d="m0 0h6l1 2v35h49v-37h6l1 1v77l-1 1h-5l-1-1-1-35-48-1v36l-6 1-1-1z" fill="#3B3D58"/>
<path transform="translate(992,1450)" d="m0 0 5 1 1 9 8-6 7-3h15l10 5 7 8 3 7 1 12-3 10-4 6-7 6-7 3h-15l-10-5-4-4-1 28-1 2h-6v-78zm25 5-10 4-7 8-2 4v16l4 8 8 7 6 2h8l9-4 7-8 2-5v-14l-4-9-7-6-8-3z" fill="#3B3D58"/>
<path transform="translate(1055,1143)" d="m0 0h7l7 3 5 4 3 5 1 4v7l-5 10-8 5-9 1-9-3-7-8-1-3v-12l5-8 7-4z" fill="#3B3D58"/>
<path transform="translate(858,1451)" d="m0 0h15l12 6 6 8 3 10v10l-3 9-9 10-9 4h-15l-9-4-8-7-4-9-1-12 3-11 9-10zm4 4-10 4-7 8-2 6v13l5 10 7 6 6 2h8l9-4 5-5 3-4 1-3v-16l-5-10-7-5-7-2z" fill="#3B3D58"/>
<path transform="translate(932,1451)" d="m0 0h15l10 4 8 9 3 8v16l-5 10-8 7-8 3-9 1-9-2-10-6-6-9-2-6v-13l4-10 5-6 9-5zm5 4-10 4-8 9-2 7v9l3 8 6 8 10 4h7l8-3 7-6 4-9v-12l-4-10-7-6-8-3z" fill="#3B3D58"/>
<path transform="translate(1200,1451)" d="m0 0h17l10 4v4l-4 1-7-3-11-1-9 3-3 5 2 8 8 4 17 4 6 3 4 6v8l-4 6-10 5h-17l-11-4-4-4 1-2 6 1 8 3 5 1h9l7-3 3-4v-6l-4-4-23-6-6-4-3-4-1-8 3-7 8-5z" fill="#3B3D58"/>
<path transform="translate(1090,1455)" d="m0 0 9 1 8 4 6 8 2 9-7 1h-36l-1-4 6-12 7-5z" fill="#FEFEEA"/>
<path transform="translate(1143,1451)" d="m0 0h6l1 7 10-6 2-1h9v4l-13 4-6 7-2 9v33l-6 1-1-1z" fill="#3B3D58"/>
</svg>
